<svg xmlns="http://www.w3.org/2000/svg" width="112" height="28" viewBox="0 0 112 28" fill="none">
    <mask id="mask0_9022_12169" style="mask-type:luminance" maskUnits="userSpaceOnUse" x="0" y="0"
        width="24" height="28">
        <path fill-rule="evenodd" clip-rule="evenodd"
            d="M0.484375 0.799805H23.4844V27.7998H0.484375V0.799805Z" fill="white" />
    </mask>
    <g mask="url(#mask0_9022_12169)">
        <path fill-rule="evenodd" clip-rule="evenodd"
            d="M4.83789 21.8224C8.99142 19.2977 13.021 16.8485 17.1847 14.3176C12.9864 11.7541 8.97016 9.30169 4.83789 6.77832V21.8224ZM0.485881 14.3491C0.485881 10.6565 0.481269 6.96399 0.488186 3.27117C0.490748 1.81984 1.14607 0.958947 2.4913 0.808426C2.95269 0.756871 3.50912 0.943144 3.92261 1.19082C7.50151 3.33335 11.0576 5.51422 14.6201 7.68447C17.1049 9.19823 19.596 10.7016 22.0713 12.2317C23.9727 13.4069 23.9468 15.2318 22.0446 16.3906C16.0701 20.03 10.0985 23.6747 4.12627 27.3178C2.85047 28.0963 1.47168 27.9294 0.857349 26.8367C0.618585 26.4118 0.508169 25.8584 0.504326 25.362C0.475633 21.6912 0.488699 18.0202 0.488699 14.3491H0.485881Z"
            fill="#C64242" />
    </g>
    <path fill-rule="evenodd" clip-rule="evenodd"
        d="M45.2863 19.6855C45.2876 20.2087 45.5877 20.4984 46.1342 20.5176C46.2615 20.522 46.3886 20.5294 46.5445 20.5385L46.5446 20.5386C46.6238 20.5432 46.7105 20.5483 46.8084 20.5536C46.8084 20.771 46.809 20.9872 46.8097 21.2027L46.8097 21.204C46.8118 21.9488 46.8139 22.6832 46.7905 23.4168C46.7874 23.5166 46.5382 23.6829 46.3956 23.6911C45.8346 23.7231 45.2694 23.7213 44.7078 23.6939C44.5773 23.6876 44.4486 23.6176 44.3221 23.5487C44.2789 23.5252 44.236 23.5018 44.1933 23.4811C44.1548 23.4624 44.1246 23.4274 44.0944 23.3924C44.0813 23.3773 44.0682 23.3621 44.0544 23.3483C43.8522 23.145 43.6271 22.9513 43.402 22.7575C42.887 22.3143 42.3721 21.871 42.1306 21.3136C41.8923 20.763 41.9406 20.0908 41.9888 19.421C42.0086 19.1448 42.0284 18.8691 42.0281 18.6024L42.0271 17.7354C42.0232 14.7479 42.0194 11.7602 42.0424 8.77267C42.0448 8.47532 42.2175 8.14246 42.4035 7.89237C42.5815 7.65332 42.8035 7.44588 43.0255 7.23848C43.119 7.1511 43.2125 7.06373 43.3027 6.974C44.5226 5.76083 44.9224 5.63923 46.7736 5.93607V9.07718C46.6931 9.07718 46.6162 9.07679 46.5417 9.07642L46.5416 9.07642C46.389 9.07566 46.2465 9.07494 46.104 9.07769C45.5877 9.08816 45.2883 9.35588 45.2868 9.85556C45.2766 13.132 45.2766 16.4088 45.2863 19.6855ZM38.55 6.80457C39.077 7.25879 39.604 7.713 39.85 8.28389C40.0919 8.84522 40.0411 9.52969 39.9904 10.2124V10.2124V10.2124V10.2124V10.2124V10.2124V10.2125V10.2125L39.9904 10.2125C39.9692 10.4982 39.9481 10.7835 39.9484 11.0594C39.9494 12.1018 39.9491 13.1441 39.9487 14.1865C39.948 16.3562 39.9474 18.5259 39.9588 20.6955C39.9611 21.1306 39.8654 21.4581 39.5288 21.7593C39.2963 21.9675 39.0796 22.2079 38.8636 22.4474C38.442 22.9151 38.0233 23.3795 37.4958 23.5947C36.9399 23.8215 36.2702 23.7797 35.6007 23.738H35.6006C35.3094 23.7198 35.0181 23.7016 34.7363 23.7056C34.5509 23.7081 34.3654 23.7075 34.1575 23.7068C34.0536 23.7065 33.9441 23.7061 33.8262 23.7061V20.5175C34.0159 20.5175 34.2039 20.5177 34.3908 20.5179C34.8076 20.5183 35.2186 20.5187 35.6295 20.517C36.414 20.5134 36.6936 20.2516 36.6941 19.5059C36.6965 16.3579 36.6965 13.2096 36.6941 10.0614C36.6934 9.33025 36.4327 9.08066 35.6823 9.07709C35.2681 9.07533 34.854 9.07575 34.4268 9.07618L34.4263 9.07618C34.2328 9.07638 34.0367 9.07658 33.8366 9.07658V5.86803C34.1016 5.86803 34.3651 5.86782 34.6274 5.86761H34.6274H34.6274H34.6274H34.6274H34.6274H34.6274H34.6274H34.6274H34.6274H34.6274H34.6275H34.6275H34.6275H34.6275H34.6275H34.6275H34.6275H34.6275C35.5478 5.86686 36.4529 5.86613 37.3579 5.87468C37.457 5.87556 37.5598 5.93827 37.6544 5.99603L37.6545 5.99604L37.6545 5.99605L37.6545 5.99606L37.6545 5.99607L37.6545 5.99608L37.6545 5.99609L37.6545 5.9961L37.6546 5.99611L37.6546 5.99612L37.6546 5.99613L37.6546 5.99615L37.6547 5.99617L37.6547 5.99618L37.6547 5.99619L37.6547 5.9962L37.6547 5.99621L37.6547 5.99621L37.6548 5.99622C37.6694 6.00513 37.6837 6.01391 37.6979 6.02233C37.7489 6.05279 37.7902 6.0987 37.8316 6.14452L37.8316 6.14453L37.8316 6.14454C37.8485 6.16327 37.8653 6.18198 37.8828 6.19962C38.0896 6.40775 38.3198 6.60616 38.55 6.80457L38.55 6.80457ZM76.1132 14.8762C76.1788 14.9658 76.2275 15.0323 76.292 15.0762C77.1878 15.6868 77.4074 16.5259 77.3283 17.5603C77.2801 18.1922 77.2887 18.828 77.2973 19.4641C77.3036 19.9362 77.31 20.4084 77.2932 20.8794C77.2844 21.1299 77.1351 21.385 76.9967 21.6215L76.9625 21.6801L76.9464 21.7079C76.8984 21.7911 76.8197 21.8567 76.7408 21.9225C76.6676 21.9835 76.5941 22.0447 76.5446 22.1204C75.3827 23.8994 73.6358 23.9112 71.7489 23.6202V20.5169C71.8922 20.5169 72.0355 20.5176 72.179 20.5183C72.5009 20.5199 72.8233 20.5215 73.1457 20.5151C73.7466 20.5031 74.0415 20.2076 74.0514 19.6098C74.0543 19.435 74.0502 19.2596 74.0462 19.0842V19.0841V19.0839V19.0837V19.0835V19.0834V19.0832V19.083V19.0828V19.0827V19.0825V19.0823V19.0822V19.082V19.0818V19.0816V19.0815V19.0813V19.0811C74.0389 18.7667 74.0316 18.4524 74.0639 18.142C74.1204 17.5976 73.9037 17.2295 73.5221 16.8611C73.1743 16.5254 72.8349 16.3062 72.3321 16.3747C72.2072 16.3918 72.078 16.3786 71.9394 16.3644C71.8734 16.3576 71.8053 16.3506 71.7344 16.3466V13.2372C71.7942 13.2317 71.8521 13.2254 71.9085 13.2192L71.9086 13.2191L71.9086 13.2191L71.9087 13.2191L71.9088 13.2191L71.9088 13.2191C72.0273 13.2061 72.1398 13.1937 72.2525 13.192C73.4147 13.1754 74.053 12.5431 74.053 11.4017C74.0531 11.2519 74.054 11.102 74.055 10.9521C74.0573 10.5909 74.0595 10.2297 74.0496 9.86897C74.0356 9.36648 73.7588 9.09084 73.244 9.07909C72.9046 9.07135 72.5651 9.07319 72.2153 9.07508C72.0575 9.07593 71.8976 9.07679 71.7346 9.07679V5.87489C71.9752 5.87489 72.2158 5.87443 72.4564 5.87397C73.244 5.87246 74.0319 5.87095 74.8195 5.88562C74.9429 5.88792 75.0798 6.02267 75.1825 6.12378L75.1829 6.12422C75.2913 6.23088 75.4001 6.33732 75.5088 6.44377L75.5089 6.44382L75.5089 6.44391L75.5091 6.44407C76.0298 6.95372 76.5507 7.46372 77.0406 8.00081C77.204 8.17988 77.2932 8.48439 77.2979 8.73346C77.3086 9.30907 77.3064 9.88491 77.3042 10.4607V10.461V10.4611V10.4611V10.4611V10.4612V10.4612V10.4613V10.4613V10.4613V10.4614V10.4614V10.4615V10.4615V10.4615V10.4616V10.4616V10.4616V10.4617C77.3013 11.2057 77.2984 11.9495 77.3236 12.6925C77.3434 13.2768 77.2001 13.7213 76.728 14.0743C76.5512 14.2066 76.3855 14.3532 76.2167 14.5026C76.14 14.5704 76.0627 14.6387 75.9835 14.7066C76.0356 14.7703 76.077 14.8268 76.1132 14.8762ZM109.694 16.9846C109.51 16.3411 109.582 15.8836 110.125 15.4984C110.762 15.0462 110.958 14.4436 110.901 13.6762C110.859 13.1088 110.868 12.538 110.877 11.967V11.9669V11.9668V11.9667V11.9666V11.9666V11.9665V11.9664V11.9663V11.9662V11.9661V11.966V11.9659V11.9658V11.9657V11.9656V11.9655V11.9654V11.9647V11.964V11.9633V11.9626V11.9619V11.9612V11.9605V11.9598V11.9591V11.9584V11.9577V11.957V11.9563V11.9556V11.9549V11.9542V11.9535C110.882 11.6338 110.887 11.3141 110.883 10.9949C110.879 10.7242 110.895 10.4447 110.911 10.1649V10.1648C110.95 9.48085 110.989 8.79445 110.745 8.22704C110.503 7.66168 109.981 7.21146 109.46 6.76207L109.46 6.76204C109.24 6.57222 109.02 6.38255 108.821 6.1844C108.807 6.16985 108.791 6.15445 108.776 6.13865L108.774 6.13682L108.773 6.13533L108.772 6.13498L108.772 6.13493L108.772 6.13488C108.664 6.02388 108.537 5.89431 108.418 5.89165C107.584 5.87333 106.749 5.87523 105.903 5.87716C105.641 5.87776 105.377 5.87837 105.111 5.87837L105.111 6.49258C105.111 7.2855 105.111 8.03127 105.113 8.77704C105.113 8.82914 105.123 8.88112 105.135 8.94938L105.135 8.94951L105.135 8.95012L105.135 8.95135L105.135 8.95197L105.136 8.95323L105.136 8.95386C105.142 8.98959 105.149 9.02977 105.156 9.07669C105.32 9.07669 105.482 9.07623 105.643 9.07577L105.644 9.07577H105.644H105.644H105.644H105.644H105.644H105.644H105.644H105.644C106.006 9.07474 106.362 9.07373 106.718 9.07797C107.329 9.08512 107.619 9.36331 107.623 9.96619C107.631 10.988 107.632 12.0101 107.623 13.0319C107.618 13.6305 107.325 13.9051 106.704 13.9133C106.349 13.9179 105.995 13.9167 105.64 13.9156C105.482 13.9151 105.324 13.9145 105.165 13.9145V17.1277H106.376C106.492 17.5642 106.607 17.9985 106.722 18.4309L106.729 18.4544L106.729 18.4561C107.15 20.0403 107.565 21.5997 107.992 23.156C108.045 23.3527 108.214 23.6674 108.341 23.6725C109.122 23.7049 109.905 23.7017 110.719 23.6983L110.72 23.6983C110.972 23.6973 111.227 23.6963 111.485 23.6963C111.315 23.0509 111.149 22.4141 110.985 21.784C110.56 20.1509 110.147 18.5623 109.694 16.9846ZM50.8196 6.38241L50.8195 6.38239C50.7296 6.29495 50.6397 6.20752 50.5499 6.11999C50.4472 6.01985 50.3114 5.88752 50.1876 5.88394C49.6289 5.86731 49.0698 5.86942 48.5093 5.87154C48.3208 5.87225 48.1322 5.87296 47.9434 5.87296V9.04778C48.0187 9.05141 48.0903 9.05519 48.1594 9.05884L48.1594 9.05884C48.2944 9.06597 48.42 9.07259 48.5458 9.07665C49.1568 9.09657 49.446 9.37196 49.4468 9.97407C49.451 13.1893 49.4512 16.4044 49.4463 19.6196C49.4455 20.2079 49.1417 20.4895 48.5291 20.5186C48.403 20.5246 48.2769 20.5347 48.1473 20.5451L48.1472 20.5451L48.147 20.5451C48.0834 20.5503 48.0189 20.5554 47.9532 20.5602V23.6352C49.8086 23.9307 50.1954 23.8122 51.4413 22.5883C51.5329 22.4984 51.6271 22.4105 51.7213 22.3227C51.9427 22.1163 52.164 21.9099 52.3507 21.6768C52.5215 21.4635 52.6865 21.1702 52.6878 20.912C52.7086 16.8239 52.7067 12.7356 52.6906 8.64748C52.6898 8.42396 52.5743 8.15164 52.4191 7.9861C51.9031 7.43597 51.3613 6.90914 50.8196 6.38241ZM58.0349 6.55996V18.9412C58.0349 19.6435 58.0349 19.9963 58.2087 20.2028C58.3841 20.4113 58.7365 20.4708 59.4447 20.5904V23.6983C59.2194 23.6983 58.9791 23.7241 58.7411 23.7496C58.2229 23.8052 57.7155 23.8596 57.3966 23.6444C56.6829 23.163 56.0792 22.5242 55.4761 21.8861C55.249 21.6458 55.022 21.4056 54.7893 21.1739C54.7591 21.1439 54.7668 21.0767 54.7745 21.01C54.778 20.98 54.7814 20.9502 54.7814 20.9238C54.7814 16.0522 54.7814 11.1807 54.7825 6.30884C54.7825 6.22823 54.7878 6.14752 54.7943 6.04992C54.7977 5.99844 54.8014 5.94225 54.8049 5.87891H58.0349V6.55996ZM65.2962 6.60055V5.91797H62.0391V10.6306L62.0392 13.133C62.0393 15.2153 62.0394 17.2977 62.0388 19.3801C62.0386 20.2591 61.8391 20.4683 60.9674 20.5212C60.899 20.5254 60.8309 20.5375 60.7527 20.5515C60.7126 20.5586 60.6699 20.5663 60.623 20.5736V23.6137C62.0838 23.9425 63.265 23.6978 64.1213 22.4923C64.3166 22.2174 64.5882 21.9865 64.8535 21.7696C65.1984 21.4873 65.3074 21.1565 65.3058 20.7146C65.2936 17.0306 65.2946 13.3467 65.2956 9.66283C65.2959 8.64208 65.2962 7.62132 65.2962 6.60055ZM32.6468 23.6813H29.4844V5.91505H32.6468V23.6813ZM79.418 19.3917H82.5986V5.9209H79.418V19.3917ZM103.967 17.0552H100.781V5.91211H103.967V17.0552ZM67.4141 16.3498H70.5734V5.90723H67.4141V16.3498ZM93.0195 16.3284H89.834V5.90625H93.0195V16.3284ZM67.3945 23.6673H70.5835V17.5479H67.3945V23.6673ZM92.993 23.6569H89.8262V17.5361H92.993V23.6569ZM100.789 23.6649H103.954V18.207H100.789V23.6649ZM98.6368 9.03114H94.2051V5.90332H98.6368V9.03114ZM94.2188 23.6861H98.6094V20.5596H94.2188V23.6861ZM87.6586 23.6657H83.8027V20.5703H87.6586V23.6657ZM79.4258 23.651H82.5937V20.5615H79.4258V23.651ZM97.1779 16.3469H94.209V13.2278H97.1779V16.3469Z"
        fill="white" />
</svg>
