<svg xmlns="http://www.w3.org/2000/svg" width="112" height="28" viewBox="0 0 112 28" fill="none">
    <mask id="mask0_9017_35054" style="mask-type:luminance" maskUnits="userSpaceOnUse" x="0" y="0"
        width="24" height="28">
        <path fill-rule="evenodd" clip-rule="evenodd"
            d="M0.855469 0.769531H23.8555V27.7695H0.855469V0.769531Z" fill="white" />
    </mask>
    <g mask="url(#mask0_9017_35054)">
        <path fill-rule="evenodd" clip-rule="evenodd"
            d="M5.20898 21.7921C9.36252 19.2675 13.3921 16.8182 17.5558 14.2873C13.3575 11.7238 9.34125 9.27141 5.20898 6.74805V21.7921ZM0.856974 14.3188C0.856974 10.6263 0.852363 6.93371 0.85928 3.2409C0.861842 1.78957 1.51716 0.928674 2.86239 0.778153C3.32378 0.726597 3.88022 0.91287 4.2937 1.16054C7.87261 3.30307 11.4287 5.48394 14.9912 7.65419C17.476 9.16795 19.9671 10.6714 22.4424 12.2014C24.3438 13.3766 24.3179 15.2015 22.4157 16.3603C16.4412 19.9998 10.4696 23.6444 4.49737 27.2875C3.22157 28.066 1.84278 27.8991 1.22844 26.8064C0.989678 26.3815 0.879263 25.8281 0.87542 25.3317C0.846727 21.6609 0.859793 17.9899 0.859793 14.3188H0.856974Z"
            fill="#B73737" />
    </g>
    <path fill-rule="evenodd" clip-rule="evenodd"
        d="M45.6574 19.6553C45.6587 20.1785 45.9588 20.4681 46.5053 20.4873C46.6326 20.4917 46.7597 20.4991 46.9156 20.5083L46.9157 20.5083C46.9949 20.5129 47.0816 20.518 47.1795 20.5233C47.1795 20.7407 47.1801 20.957 47.1807 21.1724L47.1808 21.1738C47.1829 21.9185 47.185 22.6529 47.1616 23.3865C47.1585 23.4864 46.9093 23.6527 46.7667 23.6608C46.2057 23.6928 45.6405 23.691 45.0789 23.6637C44.9484 23.6574 44.8197 23.5873 44.6932 23.5184C44.65 23.4949 44.6071 23.4715 44.5644 23.4509C44.5259 23.4321 44.4957 23.3972 44.4654 23.3622C44.4523 23.347 44.4392 23.3319 44.4255 23.318C44.2233 23.1148 43.9982 22.921 43.7731 22.7273C43.2581 22.284 42.7432 21.8407 42.5017 21.2833C42.2634 20.7327 42.3117 20.0605 42.3599 19.3907C42.3797 19.1146 42.3995 18.8388 42.3992 18.5721L42.3981 17.7051C42.3943 14.7176 42.3905 11.7299 42.4135 8.7424C42.4159 8.44505 42.5886 8.11219 42.7746 7.86209C42.9526 7.62304 43.1746 7.41561 43.3966 7.20821C43.4901 7.12083 43.5836 7.03345 43.6738 6.94372C44.8937 5.73056 45.2935 5.60896 47.1447 5.9058V9.0469C47.0642 9.0469 46.9873 9.04652 46.9128 9.04615L46.9127 9.04615C46.7601 9.04538 46.6176 9.04467 46.4751 9.04741C45.9588 9.05789 45.6594 9.32561 45.6579 9.82528C45.6477 13.1018 45.6477 16.3785 45.6574 19.6553ZM38.9211 6.7743C39.4481 7.22852 39.9751 7.68272 40.2211 8.25362C40.463 8.81495 40.4122 9.49942 40.3615 10.1821V10.1821V10.1821V10.1821V10.1822V10.1822V10.1822V10.1822L40.3615 10.1822C40.3403 10.4679 40.3192 10.7533 40.3195 11.0292C40.3205 12.0715 40.3201 13.1139 40.3198 14.1562C40.3191 16.3259 40.3184 18.4957 40.3299 20.6653C40.3322 21.1003 40.2365 21.4278 39.8999 21.729C39.6674 21.9372 39.4507 22.1776 39.2347 22.4171C38.8131 22.8848 38.3944 23.3492 37.8669 23.5644C37.311 23.7912 36.6413 23.7495 35.9718 23.7077H35.9717C35.6805 23.6895 35.3892 23.6714 35.1074 23.6753C34.922 23.6779 34.7365 23.6772 34.5286 23.6765C34.4247 23.6762 34.3152 23.6758 34.1973 23.6758V20.4872C34.387 20.4872 34.575 20.4874 34.7619 20.4876C35.1787 20.488 35.5897 20.4885 36.0006 20.4867C36.7851 20.4831 37.0647 20.2213 37.0652 19.4756C37.0676 16.3276 37.0676 13.1793 37.0652 10.0311C37.0645 9.29997 36.8038 9.05039 36.0534 9.04681C35.6392 9.04506 35.2251 9.04548 34.7979 9.04591L34.7974 9.04591C34.6039 9.04611 34.4077 9.0463 34.2077 9.0463V5.83776C34.4727 5.83776 34.7362 5.83755 34.9985 5.83733H34.9985H34.9985H34.9985H34.9985H34.9985H34.9985H34.9985H34.9985H34.9985H34.9985H34.9985H34.9986H34.9986H34.9986H34.9986H34.9986H34.9986H34.9986C35.9189 5.83659 36.824 5.83585 37.729 5.8444C37.8281 5.84529 37.9309 5.908 38.0255 5.96576L38.0256 5.96577L38.0256 5.96578L38.0256 5.96578L38.0256 5.96579L38.0256 5.9658L38.0256 5.96581L38.0256 5.96582L38.0257 5.96583L38.0257 5.96585L38.0257 5.96586L38.0257 5.96587L38.0258 5.96589L38.0258 5.96591L38.0258 5.96592L38.0258 5.96593L38.0258 5.96593L38.0258 5.96594L38.0259 5.96595C38.0404 5.97485 38.0548 5.98364 38.069 5.99206C38.12 6.02252 38.1613 6.06843 38.2027 6.11425L38.2027 6.11426L38.2027 6.11427C38.2196 6.13299 38.2364 6.15171 38.2539 6.16934C38.4607 6.37748 38.6909 6.57589 38.9211 6.7743L38.9211 6.7743ZM76.4843 14.846C76.5499 14.9356 76.5986 15.002 76.6631 15.0459C77.5589 15.6565 77.7785 16.4957 77.6994 17.53C77.6512 18.162 77.6598 18.7977 77.6683 19.4338C77.6747 19.9059 77.6811 20.3781 77.6643 20.8492C77.6555 21.0996 77.5062 21.3548 77.3678 21.5913L77.3336 21.6498L77.3175 21.6776C77.2695 21.7609 77.1908 21.8264 77.1118 21.8923C77.0387 21.9533 76.9652 22.0145 76.9157 22.0902C75.7538 23.8692 74.0069 23.8809 72.12 23.59V20.4867C72.2633 20.4867 72.4066 20.4874 72.5501 20.4881C72.872 20.4897 73.1944 20.4912 73.5168 20.4849C74.1177 20.4729 74.4126 20.1773 74.4225 19.5795C74.4254 19.4047 74.4213 19.2293 74.4172 19.0539V19.0538V19.0536V19.0534V19.0533V19.0531V19.0529V19.0527V19.0526V19.0524V19.0522V19.0521V19.0519V19.0517V19.0515V19.0514V19.0512V19.051V19.0509C74.41 18.7364 74.4027 18.4221 74.435 18.1117C74.4915 17.5673 74.2748 17.1992 73.8932 16.8308C73.5454 16.4951 73.206 16.276 72.7032 16.3444C72.5783 16.3616 72.4491 16.3483 72.3105 16.3341C72.2445 16.3273 72.1763 16.3204 72.1055 16.3163V13.2069C72.1653 13.2015 72.2231 13.1951 72.2796 13.1889L72.2796 13.1889L72.2797 13.1889L72.2798 13.1889L72.2799 13.1889L72.2799 13.1888C72.3984 13.1758 72.5109 13.1634 72.6236 13.1617C73.7858 13.1451 74.4241 12.5128 74.4241 11.3714C74.4242 11.2216 74.4251 11.0717 74.4261 10.9218C74.4283 10.5606 74.4306 10.1994 74.4207 9.83869C74.4067 9.33621 74.1299 9.06057 73.6151 9.04882C73.2757 9.04108 72.9361 9.04291 72.5864 9.0448C72.4286 9.04566 72.2686 9.04652 72.1057 9.04652V5.84462C72.3463 5.84462 72.5869 5.84416 72.8275 5.8437C73.6151 5.84219 74.403 5.84067 75.1906 5.85535C75.314 5.85765 75.4509 5.9924 75.5536 6.09351L75.554 6.09395C75.6624 6.20061 75.7712 6.30704 75.8799 6.41349L75.88 6.41354L75.88 6.41363L75.8802 6.41379C76.4008 6.92345 76.9218 7.43345 77.4117 7.97054C77.5751 8.14961 77.6643 8.45412 77.6689 8.70319C77.6797 9.27879 77.6775 9.85464 77.6753 10.4304V10.4308V10.4308V10.4308V10.4309V10.4309V10.4309V10.431V10.431V10.4311V10.4311V10.4311V10.4312V10.4312V10.4313V10.4313V10.4313V10.4314V10.4314C77.6724 11.1754 77.6695 11.9192 77.6947 12.6623C77.7145 13.2465 77.5711 13.691 77.099 14.044C76.9223 14.1763 76.7565 14.323 76.5878 14.4723C76.5111 14.5401 76.4338 14.6085 76.3546 14.6763C76.4067 14.74 76.4481 14.7965 76.4843 14.846ZM110.065 16.9544C109.881 16.3109 109.953 15.8533 110.496 15.4681C111.133 15.0159 111.329 14.4133 111.272 13.6459C111.23 13.0786 111.239 12.5077 111.248 11.9368V11.9367V11.9366V11.9365V11.9364V11.9363V11.9362V11.9361V11.936V11.9359V11.9358V11.9357V11.9356V11.9355V11.9354V11.9353V11.9352V11.9351V11.9344V11.9337V11.933V11.9323V11.9316V11.9309V11.9302V11.9295V11.9288V11.9281V11.9274V11.9267V11.926V11.9253V11.9246V11.9239V11.9232C111.253 11.6036 111.258 11.2838 111.254 10.9646C111.251 10.6939 111.266 10.4145 111.282 10.1346V10.1346C111.321 9.45058 111.36 8.76418 111.116 8.19677C110.874 7.6314 110.352 7.18119 109.831 6.7318L109.831 6.73177C109.611 6.54195 109.391 6.35227 109.192 6.15413C109.178 6.13957 109.163 6.12418 109.147 6.10837L109.145 6.10654L109.144 6.10506L109.143 6.10471L109.143 6.10465L109.143 6.10461C109.035 5.99361 108.908 5.86403 108.789 5.86138C107.955 5.84305 107.12 5.84496 106.274 5.84689C106.012 5.84749 105.748 5.84809 105.483 5.84809L105.482 6.4623C105.482 7.25522 105.482 8.00099 105.484 8.74677C105.484 8.79886 105.494 8.85085 105.506 8.91911L105.506 8.91924L105.506 8.91984L105.506 8.92108L105.506 8.9217L105.507 8.92296L105.507 8.92359C105.513 8.95931 105.52 8.9995 105.528 9.04642C105.691 9.04642 105.853 9.04596 106.015 9.0455L106.015 9.0455H106.015H106.015H106.015H106.015H106.015H106.015H106.015H106.016C106.377 9.04447 106.733 9.04346 107.089 9.04769C107.7 9.05485 107.99 9.33304 107.994 9.93592C108.002 10.9577 108.003 11.9798 107.994 13.0017C107.989 13.6002 107.696 13.8748 107.075 13.883C106.721 13.8876 106.366 13.8864 106.011 13.8853C105.853 13.8848 105.695 13.8843 105.536 13.8843V17.0974H106.747C106.863 17.534 106.979 17.9682 107.093 18.4007L107.1 18.4242L107.1 18.4259C107.521 20.01 107.936 21.5694 108.363 23.1257C108.417 23.3224 108.585 23.6371 108.712 23.6422C109.494 23.6746 110.277 23.6714 111.09 23.6681L111.091 23.6681C111.343 23.667 111.598 23.666 111.856 23.666C111.686 23.0206 111.52 22.3839 111.356 21.7537C110.931 20.1206 110.518 18.532 110.065 16.9544ZM51.1907 6.35213L51.1906 6.35211C51.1007 6.26468 51.0108 6.17725 50.921 6.08971C50.8183 5.98957 50.6825 5.85725 50.5587 5.85367C50 5.83704 49.4409 5.83915 48.8804 5.84126C48.6919 5.84197 48.5033 5.84269 48.3145 5.84269V9.01751C48.3898 9.02114 48.4614 9.02492 48.5305 9.02856L48.5305 9.02857C48.6655 9.03569 48.7911 9.04232 48.9169 9.04638C49.5279 9.0663 49.8171 9.34168 49.8179 9.9438C49.822 13.159 49.8223 16.3742 49.8174 19.5894C49.8166 20.1777 49.5128 20.4592 48.9002 20.4883C48.7741 20.4943 48.648 20.5044 48.5184 20.5148L48.5183 20.5149L48.5181 20.5149C48.4545 20.52 48.39 20.5252 48.3243 20.5299V23.6049C50.1797 23.9004 50.5665 23.7819 51.8124 22.558C51.904 22.4681 51.9982 22.3802 52.0924 22.2924C52.3138 22.086 52.5351 21.8797 52.7217 21.6465C52.8926 21.4332 53.0575 21.14 53.0588 20.8817C53.0797 16.7936 53.0778 12.7053 53.0617 8.61721C53.0609 8.39368 52.9454 8.12136 52.7902 7.95583C52.2742 7.4057 51.7324 6.87887 51.1907 6.35213ZM58.406 6.52968V18.9109C58.406 19.6132 58.406 19.966 58.5798 20.1726C58.7552 20.381 59.1076 20.4406 59.8158 20.5602V23.6681C59.5905 23.6681 59.3502 23.6938 59.1122 23.7193C58.594 23.7749 58.0866 23.8293 57.7677 23.6142C57.054 23.1328 56.4503 22.4939 55.8472 21.8558C55.6201 21.6155 55.3931 21.3753 55.1603 21.1436C55.1302 21.1137 55.1379 21.0464 55.1456 20.9797C55.1491 20.9497 55.1525 20.9199 55.1525 20.8935C55.1525 16.022 55.1525 11.1504 55.1536 6.27857C55.1536 6.19796 55.1589 6.11725 55.1654 6.01965C55.1688 5.96816 55.1725 5.91198 55.176 5.84863H58.406V6.52968ZM65.6673 6.57028V5.8877H62.4102V10.6004L62.4103 13.1027C62.4104 15.185 62.4105 17.2674 62.4099 19.3498C62.4097 20.2288 62.2102 20.438 61.3385 20.4909C61.2701 20.4951 61.202 20.5073 61.1238 20.5212C61.0837 20.5284 61.041 20.536 60.9941 20.5433V23.5835C62.4549 23.9122 63.6361 23.6675 64.4924 22.462C64.6877 22.1871 64.9592 21.9562 65.2246 21.7393C65.5695 21.457 65.6785 21.1262 65.6769 20.6843C65.6647 17.0003 65.6657 13.3165 65.6667 9.63256C65.667 8.61181 65.6673 7.59105 65.6673 6.57028ZM33.0179 23.6511H29.8555V5.88478H33.0179V23.6511ZM79.7891 19.3614H82.9697V5.89062H79.7891V19.3614ZM104.338 17.0249H101.152V5.88184H104.338V17.0249ZM67.7852 16.3195H70.9444V5.87695H67.7852V16.3195ZM93.3906 16.2981H90.2051V5.87598H93.3906V16.2981ZM67.7656 23.6371H70.9546V17.5176H67.7656V23.6371ZM93.3641 23.6266H90.1973V17.5059H93.3641V23.6266ZM101.16 23.6346H104.325V18.1768H101.16V23.6346ZM99.0079 9.00087H94.5762V5.87305H99.0079V9.00087ZM94.5898 23.6558H98.9805V20.5293H94.5898V23.6558ZM88.0297 23.6354H84.1738V20.54H88.0297V23.6354ZM79.7969 23.6208H82.9647V20.5312H79.7969V23.6208ZM97.549 16.3166H94.5801V13.1975H97.549V16.3166Z"
        fill="black" />
</svg>
