<svg width="30" height="30" viewBox="0 0 30 30" fill="none" xmlns="http://www.w3.org/2000/svg">
<circle cx="15" cy="15" r="15" fill="white" fill-opacity="0.1"/>
<path d="M10.7617 14.6795C10.7617 15.7546 11.1888 16.7856 11.949 17.5458C12.7092 18.306 13.7402 18.7331 14.8153 18.7331C15.8904 18.7331 16.9214 18.306 17.6816 17.5458C18.4418 16.7856 18.8688 15.7546 18.8688 14.6795C18.8688 13.6045 18.4418 12.5734 17.6816 11.8132C16.9214 11.053 15.8904 10.626 14.8153 10.626C13.7402 10.626 12.7092 11.053 11.949 11.8132C11.1888 12.5734 10.7617 13.6045 10.7617 14.6795Z" fill="white"/>
<path d="M14.8174 9.31791H14.4239C14.2799 9.31791 14.163 9.20101 14.163 9.05698V7.61737C14.163 7.47334 14.2799 7.35645 14.4239 7.35645H14.8174C14.9614 7.35645 15.0783 7.47334 15.0783 7.61737V9.05698C15.0783 9.20101 14.9614 9.31791 14.8174 9.31791ZM10.9879 10.6645L10.7096 10.9428C10.6076 11.0447 10.4424 11.0447 10.3406 10.9428L9.32266 9.92482C9.22072 9.82289 9.22072 9.65763 9.32266 9.55587L9.60098 9.27755C9.70291 9.17562 9.86816 9.17562 9.96992 9.27755L10.9879 10.2955C11.0898 10.3974 11.0898 10.5625 10.9879 10.6645ZM9.32474 14.4169V14.8104C9.32474 14.9544 9.20785 15.0713 9.06382 15.0713H7.62421C7.48018 15.0713 7.36328 14.9544 7.36328 14.8104V14.4169C7.36328 14.2729 7.48018 14.156 7.62421 14.156H9.06382C9.20785 14.156 9.32474 14.2729 9.32474 14.4169ZM10.8021 18.2464L11.0804 18.5247C11.1824 18.6267 11.1824 18.7919 11.0804 18.8937L10.0625 19.9116C9.96053 20.0136 9.79528 20.0136 9.69352 19.9116L9.4152 19.6333C9.31326 19.5314 9.31326 19.3661 9.4152 19.2644L10.4332 18.2464C10.5349 18.1445 10.7002 18.1445 10.8021 18.2464ZM14.5546 19.9096H14.948C15.0921 19.9096 15.209 20.0265 15.209 20.1705V21.6101C15.209 21.7541 15.0921 21.871 14.948 21.871H14.5546C14.4105 21.871 14.2936 21.7541 14.2936 21.6101V20.1705C14.2936 20.0265 14.4105 19.9096 14.5546 19.9096ZM18.3841 18.4322L18.6624 18.1539C18.7643 18.0519 18.9296 18.0519 19.0313 18.1539L20.0493 19.1718C20.1512 19.2738 20.1512 19.439 20.0493 19.5408L19.771 19.8191C19.669 19.921 19.5038 19.921 19.402 19.8191L18.3841 18.8012C18.2821 18.6994 18.2821 18.5341 18.3841 18.4322ZM20.0472 14.6797V14.2863C20.0472 14.1422 20.1641 14.0253 20.3081 14.0253H21.7477C21.8918 14.0253 22.0087 14.1422 22.0087 14.2863V14.6797C22.0087 14.8238 21.8918 14.9407 21.7477 14.9407H20.3081C20.1641 14.9407 20.0472 14.8238 20.0472 14.6797ZM18.5698 10.8502L18.2915 10.5719C18.1896 10.47 18.1896 10.3047 18.2915 10.203L19.3095 9.18501C19.4114 9.08307 19.5767 9.08307 19.6784 9.18501L19.9568 9.46333C20.0587 9.56526 20.0587 9.73052 19.9568 9.83228L18.9388 10.8502C18.8369 10.9522 18.6718 10.9522 18.5698 10.8502Z" fill="white"/>
</svg>
